<svg width="1147" height="249" viewBox="0 0 1147 249" fill="none" xmlns="http://www.w3.org/2000/svg">

<path d="M90.1187 72.4332H34.0387C18.5533 72.4332 6 84.9865 6 100.473V231.325C6 236.487 10.184 240.672 15.3453 240.672H52.732C57.8947 240.672 62.0787 236.487 62.0787 231.325V128.513" stroke="white" stroke-width="12" stroke-miterlimit="10"/>

<path d="M90.1186 128.513H62.0786V100.473C62.0786 84.9874 74.6333 72.4327 90.1186 72.4327C105.605 72.4327 118.159 84.9874 118.159 100.473C118.159 115.959 105.605 128.513 90.1186 128.513Z" stroke="white" stroke-width="12" stroke-miterlimit="10"/>

<path d="M164.891 128.513H127.505C122.343 128.513 118.158 124.329 118.158 119.166V100.473C118.158 84.9874 130.713 72.4327 146.198 72.4327C161.685 72.4327 174.238 84.9874 174.238 100.473V119.166C174.238 124.329 170.054 128.513 164.891 128.513Z" stroke="white" stroke-width="12" stroke-miterlimit="10"/>

<path d="M90.1186 240.672C74.6319 240.672 62.0786 228.119 62.0786 212.632V193.939C62.0786 188.777 66.2639 184.592 71.4253 184.592H108.812C113.973 184.592 118.159 188.777 118.159 193.939V212.632C118.159 228.119 105.604 240.672 90.1186 240.672Z" stroke="white" stroke-width="12" stroke-miterlimit="10"/>

<path d="M146.198 240.672C130.712 240.672 118.158 228.119 118.158 212.632V193.939C118.158 188.777 122.344 184.592 127.505 184.592H164.892C170.053 184.592 174.238 188.777 174.238 193.939V212.632C174.238 228.119 161.684 240.672 146.198 240.672Z" stroke="white" stroke-width="12" stroke-miterlimit="10"/>

<path d="M174.238 184.592H66.7524" stroke="white" stroke-width="12" stroke-miterlimit="10"/>

<path d="M90.1187 128.513H174.237" stroke="white" stroke-width="12" stroke-miterlimit="10"/>

<path d="M174.238 119.166V193.938" stroke="white" stroke-width="12" stroke-miterlimit="10"/>

<path d="M274.004 241.13V86.6538H304.724V105.524H306.113C307.479 102.501 309.453 99.4293 312.038 96.3086C314.671 93.1391 318.084 90.506 322.278 88.4092C326.52 86.2637 331.786 85.191 338.076 85.191C346.268 85.191 353.826 87.3365 360.75 91.6275C367.675 95.8697 373.209 102.282 377.354 110.864C381.498 119.397 383.571 130.1 383.571 142.973C383.571 155.505 381.547 166.086 377.5 174.717C373.502 183.299 368.04 189.808 361.116 194.246C354.241 198.634 346.536 200.829 338.003 200.829C331.957 200.829 326.813 199.829 322.57 197.83C318.377 195.831 314.939 193.319 312.257 190.296C309.575 187.224 307.527 184.128 306.113 181.007H305.162V241.13H274.004ZM304.504 142.827C304.504 149.507 305.431 155.334 307.284 160.308C309.137 165.282 311.818 169.158 315.329 171.937C318.84 174.668 323.107 176.033 328.129 176.033C333.2 176.033 337.491 174.644 341.002 171.864C344.513 169.036 347.17 165.135 348.975 160.162C350.827 155.139 351.754 149.361 351.754 142.827C351.754 136.342 350.852 130.637 349.048 125.712C347.244 120.787 344.586 116.935 341.075 114.155C337.564 111.376 333.249 109.986 328.129 109.986C323.058 109.986 318.767 111.327 315.256 114.009C311.794 116.691 309.137 120.494 307.284 125.419C305.431 130.344 304.504 136.147 304.504 142.827ZM404.343 199V86.6538H435.502V199H404.343ZM419.995 72.1717C415.363 72.1717 411.389 70.6357 408.073 67.5637C404.806 64.443 403.173 60.7128 403.173 56.373C403.173 52.082 404.806 48.4005 408.073 45.3286C411.389 42.2078 415.363 40.6475 419.995 40.6475C424.628 40.6475 428.577 42.2078 431.844 45.3286C435.16 48.4005 436.818 52.082 436.818 56.373C436.818 60.7128 435.16 64.443 431.844 67.5637C428.577 70.6357 424.628 72.1717 419.995 72.1717ZM511.222 201.194C499.714 201.194 489.816 198.756 481.526 193.88C473.286 188.955 466.947 182.129 462.509 173.4C458.121 164.672 455.927 154.627 455.927 143.266C455.927 131.758 458.145 121.664 462.582 112.985C467.068 104.257 473.432 97.4545 481.673 92.5783C489.913 87.6534 499.714 85.191 511.076 85.191C520.877 85.191 529.459 86.9708 536.822 90.5303C544.185 94.0899 550.012 99.088 554.303 105.524C558.594 111.961 560.958 119.519 561.397 128.199H531.994C531.165 122.591 528.971 118.081 525.411 114.667C521.901 111.205 517.293 109.474 511.588 109.474C506.76 109.474 502.542 110.791 498.934 113.424C495.374 116.008 492.595 119.787 490.596 124.761C488.597 129.734 487.597 135.757 487.597 142.827C487.597 149.995 488.572 156.09 490.523 161.112C492.522 166.135 495.326 169.963 498.934 172.596C502.542 175.229 506.76 176.545 511.588 176.545C515.147 176.545 518.341 175.814 521.169 174.351C524.046 172.888 526.411 170.767 528.264 167.988C530.166 165.16 531.409 161.771 531.994 157.821H561.397C560.91 166.403 558.569 173.961 554.376 180.495C550.231 186.98 544.502 192.052 537.187 195.709C529.873 199.366 521.218 201.194 511.222 201.194ZM609.58 166.671L609.653 129.296H614.188L650.173 86.6538H685.94L637.593 143.119H630.206L609.58 166.671ZM581.347 199V49.2051H612.505V199H581.347ZM651.563 199L618.503 150.068L639.275 128.052L688.061 199H651.563ZM732.385 134.05V199H701.227V49.2051H731.507V106.475H732.824C735.36 99.8438 739.456 94.6507 745.112 90.8961C750.768 87.0927 757.863 85.191 766.396 85.191C774.198 85.191 781 86.8976 786.803 90.3109C792.654 93.6755 797.189 98.5272 800.407 104.866C803.674 111.156 805.283 118.69 805.235 127.467V199H774.076V133.026C774.125 126.102 772.369 120.714 768.81 116.861C765.299 113.009 760.374 111.083 754.035 111.083C749.793 111.083 746.038 111.985 742.771 113.79C739.553 115.594 737.017 118.227 735.165 121.689C733.36 125.102 732.434 129.222 732.385 134.05ZM880.955 201.194C869.398 201.194 859.451 198.854 851.113 194.173C842.824 189.443 836.436 182.762 831.95 174.132C827.464 165.452 825.221 155.188 825.221 143.339C825.221 131.782 827.464 121.64 831.95 112.912C836.436 104.184 842.75 97.3813 850.894 92.5052C859.085 87.6291 868.691 85.191 879.712 85.191C887.123 85.191 894.023 86.3856 900.411 88.7749C906.847 91.1155 912.455 94.6507 917.233 99.3805C922.061 104.11 925.815 110.059 928.497 117.227C931.179 124.346 932.52 132.685 932.52 142.242V150.799H837.655V131.49H903.19C903.19 127.004 902.215 123.03 900.264 119.568C898.314 116.106 895.608 113.399 892.146 111.449C888.732 109.45 884.758 108.45 880.224 108.45C875.494 108.45 871.3 109.547 867.643 111.742C864.035 113.887 861.207 116.788 859.159 120.445C857.111 124.054 856.062 128.077 856.013 132.514V150.873C856.013 156.431 857.037 161.234 859.085 165.282C861.182 169.329 864.132 172.449 867.936 174.644C871.739 176.838 876.249 177.935 881.467 177.935C884.929 177.935 888.098 177.447 890.975 176.472C893.852 175.497 896.315 174.034 898.363 172.084C900.411 170.133 901.971 167.744 903.044 164.916L931.862 166.818C930.399 173.742 927.4 179.788 922.865 184.957C918.379 190.077 912.577 194.075 905.458 196.952C898.387 199.78 890.22 201.194 880.955 201.194ZM952.854 199V86.6538H983.061V106.256H984.231C986.279 99.283 989.717 94.0168 994.544 90.4572C999.372 86.8489 1004.93 85.0447 1011.22 85.0447C1012.78 85.0447 1014.46 85.1422 1016.27 85.3373C1018.07 85.5323 1019.66 85.8005 1021.02 86.1418V113.79C1019.56 113.351 1017.54 112.961 1014.95 112.619C1012.37 112.278 1010 112.107 1007.86 112.107C1003.27 112.107 999.177 113.107 995.568 115.106C992.009 117.057 989.181 119.787 987.084 123.298C985.036 126.809 984.012 130.856 984.012 135.44V199H952.854ZM1082.66 201.194C1071.3 201.194 1061.48 198.781 1053.19 193.953C1044.95 189.077 1038.58 182.299 1034.1 173.62C1029.61 164.891 1027.37 154.773 1027.37 143.266C1027.37 131.661 1029.61 121.518 1034.1 112.839C1038.58 104.11 1044.95 97.3326 1053.19 92.5052C1061.48 87.6291 1071.3 85.191 1082.66 85.191C1094.02 85.191 1103.82 87.6291 1112.07 92.5052C1120.35 97.3326 1126.74 104.11 1131.23 112.839C1135.71 121.518 1137.96 131.661 1137.96 143.266C1137.96 154.773 1135.71 164.891 1131.23 173.62C1126.74 182.299 1120.35 189.077 1112.07 193.953C1103.82 198.781 1094.02 201.194 1082.66 201.194ZM1082.81 177.057C1087.98 177.057 1092.29 175.595 1095.75 172.669C1099.22 169.694 1101.83 165.647 1103.58 160.527C1105.39 155.407 1106.29 149.58 1106.29 143.046C1106.29 136.512 1105.39 130.685 1103.58 125.565C1101.83 120.445 1099.22 116.398 1095.75 113.424C1092.29 110.449 1087.98 108.962 1082.81 108.962C1077.59 108.962 1073.2 110.449 1069.64 113.424C1066.13 116.398 1063.47 120.445 1061.67 125.565C1059.92 130.685 1059.04 136.512 1059.04 143.046C1059.04 149.58 1059.92 155.407 1061.67 160.527C1063.47 165.647 1066.13 169.694 1069.64 172.669C1073.2 175.595 1077.59 177.057 1082.81 177.057Z" fill="white"/>

</svg>