<svg width="1138" height="207" viewBox="0 0 1138 207" fill="none" xmlns="http://www.w3.org/2000/svg">
    <path d="M90.1187 31.7858H34.0387C18.5533 31.7858 6 44.3391 6 59.8258V190.678C6 195.839 10.184 200.024 15.3453 200.024H52.732C57.8947 200.024 62.0787 195.839 62.0787 190.678V87.8657" stroke="#FF4075" stroke-width="12" stroke-miterlimit="10"/>
    <path d="M90.1186 87.8652H62.0786V59.8252C62.0786 44.3399 74.6333 31.7852 90.1186 31.7852C105.605 31.7852 118.159 44.3399 118.159 59.8252C118.159 75.3119 105.605 87.8652 90.1186 87.8652Z" stroke="#FF4075" stroke-width="12" stroke-miterlimit="10"/>
    <path d="M164.891 87.8652H127.505C122.343 87.8652 118.158 83.6812 118.158 78.5186V59.8252C118.158 44.3399 130.713 31.7852 146.198 31.7852C161.685 31.7852 174.238 44.3399 174.238 59.8252V78.5186C174.238 83.6812 170.054 87.8652 164.891 87.8652Z" stroke="#FF4075" stroke-width="12" stroke-miterlimit="10"/>
    <path d="M90.1186 200.024C74.6319 200.024 62.0786 187.471 62.0786 171.984V153.291C62.0786 148.13 66.2639 143.944 71.4253 143.944H108.812C113.973 143.944 118.159 148.13 118.159 153.291V171.984C118.159 187.471 105.604 200.024 90.1186 200.024Z" stroke="#FF4075" stroke-width="12" stroke-miterlimit="10"/>
    <path d="M146.198 200.024C130.712 200.024 118.158 187.471 118.158 171.984V153.291C118.158 148.13 122.344 143.944 127.505 143.944H164.892C170.053 143.944 174.238 148.13 174.238 153.291V171.984C174.238 187.471 161.684 200.024 146.198 200.024Z" stroke="#FF4075" stroke-width="12" stroke-miterlimit="10"/>
    <path d="M174.238 143.944H66.7524" stroke="#FF4075" stroke-width="12" stroke-miterlimit="10"/>
    <path d="M90.1187 87.8652H174.237" stroke="#FF4075" stroke-width="12" stroke-miterlimit="10"/>
    <path d="M174.238 78.518V153.29" stroke="#FF4075" stroke-width="12" stroke-miterlimit="10"/>
    <path d="M1082.66 160.547C1071.3 160.547 1061.48 158.134 1053.19 153.306C1044.95 148.43 1038.58 141.652 1034.1 132.973C1029.61 124.244 1027.37 114.126 1027.37 102.619C1027.37 91.0135 1029.61 80.8712 1034.1 72.1916C1038.58 63.4634 1044.95 56.6855 1053.19 51.8581C1061.48 46.982 1071.3 44.5439 1082.66 44.5439C1094.02 44.5439 1103.82 46.982 1112.07 51.8581C1120.35 56.6855 1126.74 63.4634 1131.23 72.1916C1135.71 80.8712 1137.96 91.0135 1137.96 102.619C1137.96 114.126 1135.71 124.244 1131.23 132.973C1126.74 141.652 1120.35 148.43 1112.07 153.306C1103.82 158.134 1094.02 160.547 1082.66 160.547ZM1082.81 136.41C1087.98 136.41 1092.29 134.948 1095.75 132.022C1099.22 129.047 1101.83 125 1103.58 119.88C1105.39 114.76 1106.29 108.933 1106.29 102.399C1106.29 95.8653 1105.39 90.0383 1103.58 84.9184C1101.83 79.7984 1099.22 75.7512 1095.75 72.7768C1092.29 69.8023 1087.98 68.3151 1082.81 68.3151C1077.59 68.3151 1073.2 69.8023 1069.64 72.7768C1066.13 75.7512 1063.47 79.7984 1061.67 84.9184C1059.92 90.0383 1059.04 95.8653 1059.04 102.399C1059.04 108.933 1059.92 114.76 1061.67 119.88C1063.47 125 1066.13 129.047 1069.64 132.022C1073.2 134.948 1077.59 136.41 1082.81 136.41Z" fill="#FF4075"/>
    <path d="M952.854 158.353V46.0066H983.061V65.6087H984.231C986.279 58.6358 989.717 53.3695 994.544 49.81C999.372 46.2016 1004.93 44.3975 1011.22 44.3975C1012.78 44.3975 1014.46 44.495 1016.27 44.69C1018.07 44.8851 1019.66 45.1533 1021.02 45.4946V73.1423C1019.56 72.7034 1017.54 72.3133 1014.95 71.972C1012.37 71.6307 1010 71.46 1007.86 71.46C1003.27 71.46 999.177 72.4596 995.568 74.4588C992.009 76.4093 989.181 79.1399 987.084 82.6507C985.036 86.1616 984.012 90.2088 984.012 94.7923V158.353H952.854Z" fill="#FF4075"/>
    <path d="M880.955 160.547C869.399 160.547 859.451 158.207 851.113 153.526C842.824 148.796 836.436 142.115 831.95 133.485C827.464 124.805 825.221 114.541 825.221 102.692C825.221 91.1354 827.464 80.9931 831.95 72.2648C836.436 63.5365 842.75 56.7343 850.894 51.8581C859.085 46.982 868.691 44.5439 879.711 44.5439C887.123 44.5439 894.023 45.7386 900.411 48.1279C906.847 50.4684 912.455 54.0036 917.233 58.7335C922.061 63.4634 925.815 69.4122 928.497 76.5802C931.179 83.6993 932.52 92.0375 932.52 101.595V110.152H837.655V90.8429H903.19C903.19 86.3568 902.215 82.3828 900.264 78.9207C898.314 75.4586 895.608 72.7524 892.146 70.8019C888.732 68.8027 884.758 67.8031 880.224 67.8031C875.494 67.8031 871.3 68.9002 867.643 71.0945C864.035 73.24 861.207 76.1413 859.159 79.7984C857.111 83.4067 856.062 87.4296 856.013 91.8668V110.225C856.013 115.784 857.037 120.587 859.085 124.634C861.182 128.682 864.132 131.802 867.936 133.997C871.739 136.191 876.249 137.288 881.467 137.288C884.929 137.288 888.098 136.8 890.975 135.825C893.852 134.85 896.315 133.387 898.363 131.437C900.411 129.486 901.971 127.097 903.044 124.269L931.862 126.17C930.399 133.095 927.4 139.141 922.865 144.31C918.379 149.43 912.577 153.428 905.458 156.305C898.387 159.133 890.22 160.547 880.955 160.547Z" fill="#FF4075"/>
    <path d="M732.385 93.4024V158.353H701.227V8.55762H731.507V65.8278H732.824C735.36 59.1963 739.455 54.0032 745.112 50.2486C750.768 46.4452 757.863 44.5435 766.396 44.5435C774.198 44.5435 781 46.2502 786.803 49.6634C792.654 53.028 797.189 57.8797 800.407 64.2187C803.674 70.5089 805.283 78.0426 805.235 86.8196V158.353H774.076V92.3784C774.125 85.4543 772.369 80.0662 768.81 76.214C765.299 72.3619 760.374 70.4358 754.035 70.4358C749.793 70.4358 746.038 71.3379 742.771 73.142C739.553 74.9462 737.017 77.5793 735.164 81.0414C733.36 84.4547 732.434 88.575 732.385 93.4024Z" fill="#FF4075"/>
    <path d="M609.579 126.024L609.653 88.6482H614.187L650.173 46.0063H685.94L637.593 102.472H630.206L609.579 126.024ZM581.347 158.353V8.55762H612.505V158.353H581.347ZM651.563 158.353L618.503 109.421L639.275 87.4047L688.061 158.353H651.563Z" fill="#FF4075"/>
    <path d="M511.222 160.547C499.714 160.547 489.816 158.109 481.526 153.233C473.286 148.308 466.947 141.482 462.509 132.753C458.121 124.025 455.927 113.98 455.927 102.619C455.927 91.111 458.145 81.0174 462.582 72.3379C467.068 63.6096 473.432 56.8074 481.673 51.9313C489.913 47.0064 499.714 44.5439 511.076 44.5439C520.877 44.5439 529.459 46.3237 536.822 49.8833C544.185 53.4429 550.012 58.4409 554.303 64.8774C558.594 71.3139 560.958 78.8719 561.397 87.5515H531.994C531.165 81.9439 528.971 77.4335 525.411 74.0202C521.901 70.5581 517.293 68.8271 511.588 68.8271C506.76 68.8271 502.542 70.1437 498.934 72.7768C495.374 75.3611 492.595 79.1401 490.596 84.1138C488.597 89.0874 487.597 95.1095 487.597 102.18C487.597 109.348 488.572 115.443 490.523 120.465C492.522 125.488 495.326 129.316 498.934 131.949C502.542 134.582 506.76 135.898 511.588 135.898C515.147 135.898 518.341 135.167 521.169 133.704C524.046 132.241 526.411 130.12 528.264 127.341C530.166 124.513 531.409 121.124 531.994 117.174H561.397C560.91 125.756 558.569 133.314 554.376 139.848C550.231 146.333 544.502 151.404 537.187 155.062C529.873 158.719 521.218 160.547 511.222 160.547Z" fill="#FF4075"/>
    <path d="M404.343 158.353V46.0064H435.502V158.353H404.343ZM419.996 31.5242C415.363 31.5242 411.389 29.9882 408.073 26.9163C404.806 23.7955 403.173 20.0653 403.173 15.7255C403.173 11.4345 404.806 7.75306 408.073 4.6811C411.389 1.56037 415.363 0 419.996 0C424.628 0 428.578 1.56037 431.845 4.6811C435.16 7.75306 436.818 11.4345 436.818 15.7255C436.818 20.0653 435.16 23.7955 431.845 26.9163C428.578 29.9882 424.628 31.5242 419.996 31.5242Z" fill="#FF4075"/>
    <path d="M274.004 200.483V46.0068H304.724V64.8774H306.113C307.479 61.8542 309.453 58.7823 312.038 55.6615C314.671 52.492 318.084 49.8589 322.278 47.7622C326.52 45.6167 331.786 44.5439 338.076 44.5439C346.268 44.5439 353.826 46.6894 360.75 50.9804C367.674 55.2227 373.209 61.6348 377.354 70.2168C381.498 78.75 383.571 89.4531 383.571 102.326C383.571 114.858 381.547 125.439 377.5 134.07C373.501 142.652 368.04 149.161 361.116 153.599C354.241 157.987 346.536 160.182 338.003 160.182C331.957 160.182 326.812 159.182 322.57 157.183C318.377 155.183 314.939 152.672 312.257 149.649C309.575 146.577 307.527 143.481 306.113 140.36H305.162V200.483H274.004ZM304.504 102.18C304.504 108.86 305.431 114.687 307.284 119.661C309.136 124.634 311.818 128.511 315.329 131.29C318.84 134.021 323.107 135.386 328.129 135.386C333.2 135.386 337.491 133.997 341.002 131.217C344.513 128.389 347.17 124.488 348.974 119.515C350.827 114.492 351.754 108.714 351.754 102.18C351.754 95.6946 350.852 89.9895 349.048 85.0646C347.243 80.1397 344.586 76.2876 341.075 73.5082C337.564 70.7288 333.249 69.3391 328.129 69.3391C323.058 69.3391 318.767 70.68 315.256 73.3619C311.794 76.0438 309.136 79.8472 307.284 84.7721C305.431 89.697 304.504 95.4996 304.504 102.18Z" fill="#FF4075"/>
</svg>
