<svg width="181" height="181" viewBox="0 0 181 181" fill="none" xmlns="http://www.w3.org/2000/svg">
<path d="M90.1187 6.0006H34.0387C18.5533 6.0006 6 18.5539 6 34.0406V164.893C6 170.054 10.184 174.239 15.3453 174.239H52.732C57.8947 174.239 62.0787 170.054 62.0787 164.893V62.0806" stroke="#FF4075" stroke-width="12" stroke-miterlimit="10"/>
<path d="M90.1186 62.0801H62.0786V34.0401C62.0786 18.5547 74.6333 6.00007 90.1186 6.00007C105.605 6.00007 118.159 18.5547 118.159 34.0401C118.159 49.5267 105.605 62.0801 90.1186 62.0801Z" stroke="#FF4075" stroke-width="12" stroke-miterlimit="10"/>
<path d="M164.891 62.0801H127.505C122.343 62.0801 118.158 57.8961 118.158 52.7334V34.0401C118.158 18.5547 130.713 6.00007 146.198 6.00007C161.685 6.00007 174.238 18.5547 174.238 34.0401V52.7334C174.238 57.8961 170.054 62.0801 164.891 62.0801Z" stroke="#FF4075" stroke-width="12" stroke-miterlimit="10"/>
<path d="M90.1186 174.239C74.6319 174.239 62.0786 161.686 62.0786 146.199V127.506C62.0786 122.345 66.2639 118.159 71.4253 118.159H108.812C113.973 118.159 118.159 122.345 118.159 127.506V146.199C118.159 161.686 105.604 174.239 90.1186 174.239Z" stroke="#FF4075" stroke-width="12" stroke-miterlimit="10"/>
<path d="M146.198 174.239C130.712 174.239 118.158 161.686 118.158 146.199V127.506C118.158 122.345 122.344 118.159 127.505 118.159H164.892C170.053 118.159 174.238 122.345 174.238 127.506V146.199C174.238 161.686 161.684 174.239 146.198 174.239Z" stroke="#FF4075" stroke-width="12" stroke-miterlimit="10"/>
<path d="M174.238 118.159H66.7524" stroke="#FF4075" stroke-width="12" stroke-miterlimit="10"/>
<path d="M90.1187 62.0801H174.237" stroke="#FF4075" stroke-width="12" stroke-miterlimit="10"/>
<path d="M174.238 52.7329V127.505" stroke="#FF4075" stroke-width="12" stroke-miterlimit="10"/>
</svg>

